<svg width="1200" height="675" viewBox="0 0 1200 675" xmlns="http://www.w3.org/2000/svg" role="img" aria-labelledby="title desc">
  <title id="title">Website Padukuhan Salakan</title>
  <desc id="desc">Ilustrasi warga mengakses informasi Padukuhan Salakan melalui website salakan.id.</desc>
  <defs>
    <linearGradient id="bg" x1="0" x2="1" y1="0" y2="1">
      <stop offset="0" stop-color="#E8F1EA"/>
      <stop offset="0.55" stop-color="#FFF7E8"/>
      <stop offset="1" stop-color="#D8E7D6"/>
    </linearGradient>
    <filter id="shadow" x="-20%" y="-20%" width="140%" height="140%">
      <feDropShadow dx="0" dy="14" stdDeviation="18" flood-color="#1D3E31" flood-opacity="0.18"/>
    </filter>
  </defs>
  <rect width="1200" height="675" fill="url(#bg)"/>
  <circle cx="1030" cy="110" r="92" fill="#D9BF92" opacity="0.5"/>
  <circle cx="125" cy="565" r="125" fill="#C7D7C4" opacity="0.75"/>
  <path d="M0 560 C170 515 250 595 420 552 C650 493 770 608 1200 520 L1200 675 L0 675 Z" fill="#1D3E31" opacity="0.12"/>

  <g filter="url(#shadow)">
    <rect x="130" y="110" width="620" height="390" rx="32" fill="#FFFDF7"/>
    <rect x="166" y="150" width="548" height="58" rx="18" fill="#1D3E31"/>
    <circle cx="198" cy="179" r="8" fill="#E5C592"/>
    <circle cx="226" cy="179" r="8" fill="#C7D7C4"/>
    <circle cx="254" cy="179" r="8" fill="#F2D58B"/>
    <text x="290" y="188" fill="#FFF9EF" font-family="Inter, Arial, sans-serif" font-size="24" font-weight="700">salakan.id</text>

    <rect x="176" y="238" width="245" height="36" rx="12" fill="#E8EFE9"/>
    <rect x="176" y="294" width="180" height="24" rx="10" fill="#D9BF92"/>
    <rect x="176" y="332" width="420" height="18" rx="9" fill="#DDE7DC"/>
    <rect x="176" y="364" width="370" height="18" rx="9" fill="#DDE7DC"/>
    <rect x="176" y="404" width="132" height="46" rx="16" fill="#1D3E31"/>
    <text x="204" y="434" fill="#FFF9EF" font-family="Inter, Arial, sans-serif" font-size="20" font-weight="700">Layanan</text>

    <rect x="472" y="238" width="202" height="90" rx="18" fill="#F2D58B" opacity="0.9"/>
    <rect x="472" y="348" width="202" height="102" rx="18" fill="#C7D7C4" opacity="0.95"/>
    <text x="500" y="292" fill="#1E2A22" font-family="Inter, Arial, sans-serif" font-size="26" font-weight="800">Agenda</text>
    <text x="498" y="405" fill="#1E2A22" font-family="Inter, Arial, sans-serif" font-size="26" font-weight="800">UMKM</text>
  </g>

  <g filter="url(#shadow)">
    <rect x="790" y="175" width="260" height="390" rx="34" fill="#1E2A22"/>
    <rect x="812" y="214" width="216" height="308" rx="24" fill="#FFFDF7"/>
    <rect x="842" y="246" width="156" height="28" rx="10" fill="#1D3E31"/>
    <rect x="842" y="300" width="125" height="18" rx="9" fill="#D9BF92"/>
    <rect x="842" y="336" width="154" height="16" rx="8" fill="#DDE7DC"/>
    <rect x="842" y="366" width="118" height="16" rx="8" fill="#DDE7DC"/>
    <rect x="842" y="418" width="156" height="52" rx="18" fill="#E8EFE9"/>
    <text x="872" y="452" fill="#1D3E31" font-family="Inter, Arial, sans-serif" font-size="24" font-weight="800">Warga</text>
  </g>

  <text x="130" y="585" fill="#1E2A22" font-family="Georgia, 'Times New Roman', serif" font-size="48" font-weight="700">Website Padukuhan untuk Warga Salakan</text>
  <text x="132" y="626" fill="#3B4A40" font-family="Inter, Arial, sans-serif" font-size="24">Layanan, agenda, dokumentasi, dan potensi warga dalam satu rumah digital.</text>
</svg>
